<svg width="43" height="31" viewBox="0 0 43 31" fill="none"  xmlns="http://www.w3.org/2000/svg">
<path fill-rule="evenodd" clip-rule="evenodd" d="M17.4,3.8c0.8-0.8,2-0.8,2.8,0l3.6,3.6V4.8c0-0.6,0.4-1,1-1h2c0.6,0,1,0.4,1,1v6.6l3.7,3.7c0.4,0.4,0.4,1,0,1.4 c-0.4,0.4-1,0.4-1.4,0l-0.3-0.3v10.6c0,1.7-1.3,3-3,3h-16c-1.7,0-3-1.3-3-3V16.2l-0.3,0.3c-0.4,0.4-1,0.4-1.4,0 c-0.4-0.4-0.4-1,0-1.4l0,0L17.4,3.8z" fill="#333333"/>
<path d="M14.3,1.8c-0.8-0.8-2-0.8-2.8,0L0.1,13.1c-0.4,0.4-0.4,1,0,1.4s1,0.4,1.4,0l0.3-0.3v10.6c0,1.7,1.3,3,3,3h1.1 c-0.1-0.3-0.1-0.7-0.1-1v-8.2c-1.6-0.6-2.4-2.3-1.8-3.8c0.1-0.4,0.4-0.8,0.7-1.1L15.4,3L14.3,1.8z" fill="#333333"/>
<g>
	<path fill-rule="evenodd" clip-rule="evenodd" d="M36.4,7.1c0.4,0.3,0.5,1,0.2,1.4l-3.7,4.7c-0.3,0.4-1,0.5-1.4,0.2c-0.4-0.3-0.5-1-0.2-1.4L35,7.2 C35.3,6.8,35.9,6.7,36.4,7.1z"  fill="#333333"/>
	<path fill-rule="evenodd" clip-rule="evenodd" d="M41.9,20.9c-0.1,0.5-0.6,0.9-1.1,0.9L34.9,21c-0.5-0.1-0.9-0.6-0.9-1.1c0.1-0.5,0.6-0.9,1.1-0.9l5.9,0.8 C41.6,19.9,42,20.4,41.9,20.9z"  fill="#333333"/>
	<path fill-rule="evenodd" clip-rule="evenodd" d="M40.5,13.6c0.2,0.5,0,1.1-0.5,1.3l-5.6,2.3c-0.5,0.2-1.1,0-1.3-0.5c-0.2-0.5,0-1.1,0.5-1.3l5.6-2.3 C39.7,12.9,40.3,13.1,40.5,13.6z " fill="#333333"/>
</g>
</svg>
